<svg id="XPO.icons"><defs> <path id="notificationsoff-a" d="M0 0h48v48H0z"/> </defs><symbol viewBox="0 0 48 48" id="XPO.iconadd"> <path d="M38 26H26v12h-4V26H10v-4h12V10h4v12h12v4z"/> <path d="M0 0h48v48H0z" fill="none"/> </symbol><symbol viewBox="0 0 48 48" id="XPO.iconappinstall"> <g transform="matrix(0 -.6625 .6625 0 5.45 42.55)"> <g stroke-width="1.232"> <path d="m22.66 0h-19.32c-1.842 0-3.34 1.498-3.34 3.34v19.32c0 1.842 1.498 3.34 3.34 3.34h19.32c1.842 0 3.34-1.498 3.34-3.34v-19.32c0-1.842-1.498-3.34-3.34-3.34z"/> <path d="m33.34 26h19.32c1.842 0 3.34-1.498 3.34-3.34v-19.32c0-1.842-1.498-3.34-3.34-3.34h-19.32c-1.842 0-3.34 1.498-3.34 3.34v19.32c0 1.842 1.498 3.34 3.34 3.34z"/> <path d="m22.66 30h-19.32c-1.842 0-3.34 1.498-3.34 3.34v19.32c0 1.842 1.498 3.34 3.34 3.34h19.32c1.842 0 3.34-1.498 3.34-3.34v-19.32c0-1.842-1.498-3.34-3.34-3.34z"/> </g> <path d="m41.14 55.98v-11.15h-11.15v-3.717h11.15v-11.15h3.717v11.15h11.15v3.717h-11.15v11.15z" stroke-width="1.145"/> </g> </symbol><symbol viewBox="0 0 48 48" id="XPO.iconarrowback"> <path d="M0 0h48v48H0z" fill="none"/> <path d="M40 22H15.66l11.17-11.17L24 8 8 24l16 16 2.83-2.83L15.66 26H40v-4z"/> </symbol><symbol viewBox="0 0 48 48" id="XPO.iconbluron"> <path d="M12 26c-1.1 0-2 .9-2 2s.9 2 2 2 2-.9 2-2-.9-2-2-2zm0 8c-1.1 0-2 .9-2 2s.9 2 2 2 2-.9 2-2-.9-2-2-2zm0-16c-1.1 0-2 .9-2 2s.9 2 2 2 2-.9 2-2-.9-2-2-2zm-6 1c-.55 0-1 .45-1 1s.45 1 1 1 1-.45 1-1-.45-1-1-1zm6-9c-1.1 0-2 .9-2 2s.9 2 2 2 2-.9 2-2-.9-2-2-2zm30 11c.55 0 1-.45 1-1s-.45-1-1-1-1 .45-1 1 .45 1 1 1zm-14-7c1.1 0 2-.9 2-2s-.9-2-2-2-2 .9-2 2 .9 2 2 2zm0-7c.55 0 1-.45 1-1s-.45-1-1-1-1 .45-1 1 .45 1 1 1zM6 27c-.55 0-1 .45-1 1s.45 1 1 1 1-.45 1-1-.45-1-1-1zm14 14c-.55 0-1 .45-1 1s.45 1 1 1 1-.45 1-1-.45-1-1-1zm0-34c.55 0 1-.45 1-1s-.45-1-1-1-1 .45-1 1 .45 1 1 1zm0 7c1.1 0 2-.9 2-2s-.9-2-2-2-2 .9-2 2 .9 2 2 2zm0 11c-1.66 0-3 1.34-3 3s1.34 3 3 3 3-1.34 3-3-1.34-3-3-3zm16 1c-1.1 0-2 .9-2 2s.9 2 2 2 2-.9 2-2-.9-2-2-2zm0 8c-1.1 0-2 .9-2 2s.9 2 2 2 2-.9 2-2-.9-2-2-2zm0-16c-1.1 0-2 .9-2 2s.9 2 2 2 2-.9 2-2-.9-2-2-2zm0-8c-1.1 0-2 .9-2 2s.9 2 2 2 2-.9 2-2-.9-2-2-2zm6 17c-.55 0-1 .45-1 1s.45 1 1 1 1-.45 1-1-.45-1-1-1zm-14 7c-1.1 0-2 .9-2 2s.9 2 2 2 2-.9 2-2-.9-2-2-2zm0 7c-.55 0-1 .45-1 1s.45 1 1 1 1-.45 1-1-.45-1-1-1zm-8-24c-1.66 0-3 1.34-3 3s1.34 3 3 3 3-1.34 3-3-1.34-3-3-3zm0 17c-1.1 0-2 .9-2 2s.9 2 2 2 2-.9 2-2-.9-2-2-2zm8-9c-1.66 0-3 1.34-3 3s1.34 3 3 3 3-1.34 3-3-1.34-3-3-3zm0-8c-1.66 0-3 1.34-3 3s1.34 3 3 3 3-1.34 3-3-1.34-3-3-3z"/> <path d="M0 0h48v48H0z" fill="none"/> </symbol><symbol viewBox="0 0 48 48" id="XPO.iconbrightness7"> <path d="M0 0h48v48H0z" fill="none"/> <path d="M40 17.37V8h-9.37L24 1.37 17.37 8H8v9.37L1.37 24 8 30.63V40h9.37L24 46.63 30.63 40H40v-9.37L46.63 24 40 17.37zM24 36c-6.63 0-12-5.37-12-12s5.37-12 12-12 12 5.37 12 12-5.37 12-12 12zm0-20c-4.42 0-8 3.58-8 8s3.58 8 8 8 8-3.58 8-8-3.58-8-8-8z"/> </symbol><symbol viewBox="0 0 48 48" id="XPO.iconbugreport"> <path d="M0 0h48v48H0z" fill="none"/> <path d="M40 16h-5.62c-.9-1.56-2.14-2.91-3.63-3.92L34 8.83 31.17 6l-4.35 4.35c-.9-.22-1.85-.35-2.82-.35-.97 0-1.92.13-2.82.35L16.83 6 14 8.83l3.25 3.25c-1.49 1.01-2.73 2.36-3.63 3.92H8v4h4.18c-.11.65-.18 1.32-.18 2v2H8v4h4v2c0 .68.07 1.35.18 2H8v4h5.62c2.07 3.58 5.94 6 10.38 6s8.31-2.42 10.38-6H40v-4h-4.18c.11-.65.18-1.32.18-2v-2h4v-4h-4v-2c0-.68-.07-1.35-.18-2H40v-4zM28 32h-8v-4h8v4zm0-8h-8v-4h8v4z"/> </symbol><symbol viewBox="0 0 48 48" id="XPO.iconcall"> <path d="M0 0h48v48H0z" fill="none"/> <path d="M13.25 21.59c2.88 5.66 7.51 10.29 13.18 13.17l4.4-4.41c.55-.55 1.34-.71 2.03-.49C35.1 30.6 37.51 31 40 31c1.11 0 2 .89 2 2v7c0 1.11-.89 2-2 2C21.22 42 6 26.78 6 8c0-1.11.9-2 2-2h7c1.11 0 2 .89 2 2 0 2.49.4 4.9 1.14 7.14.22.69.06 1.48-.49 2.03l-4.4 4.42z"/> </symbol><symbol viewBox="0 0 48 48" id="XPO.iconcallend"> <path d="M0 0h48v48H0z" fill="none"/> <path d="M24 18c-3.21 0-6.3.5-9.2 1.44v6.21c0 .79-.46 1.47-1.12 1.8-1.95.98-3.74 2.23-5.33 3.7-.36.35-.85.57-1.4.57-.55 0-1.05-.22-1.41-.59L.59 26.18c-.37-.37-.59-.87-.59-1.42 0-.55.22-1.05.59-1.42C6.68 17.55 14.93 14 24 14s17.32 3.55 23.41 9.34c.37.36.59.87.59 1.42 0 .55-.22 1.05-.59 1.41l-4.95 4.95c-.36.36-.86.59-1.41.59-.54 0-1.04-.22-1.4-.57-1.59-1.47-3.38-2.72-5.33-3.7-.66-.33-1.12-1.01-1.12-1.8v-6.21C30.3 18.5 27.21 18 24 18z"/> </symbol><symbol viewBox="0 0 48 48" id="XPO.iconclose"> <path d="M38 12.83L35.17 10 24 21.17 12.83 10 10 12.83 21.17 24 10 35.17 12.83 38 24 26.83 35.17 38 38 35.17 26.83 24z"/> <path d="M0 0h48v48H0z" fill="none"/> </symbol><symbol viewBox="0 0 48 48" id="XPO.icondaterange"> <path d="M18 22h-4v4h4v-4zm8 0h-4v4h4v-4zm8 0h-4v4h4v-4zm4-14h-2V4h-4v4H16V4h-4v4h-2c-2.22 0-3.98 1.8-3.98 4L6 40c0 2.2 1.78 4 4 4h28c2.2 0 4-1.8 4-4V12c0-2.2-1.8-4-4-4zm0 32H10V18h28v22z"/> <path fill="none" d="M0 0h48v48H0z"/> </symbol><symbol viewBox="0 0 48 48" id="XPO.icondone"> <path d="M0 0h48v48H0z" fill="none"/> <path d="M18 32.34L9.66 24l-2.83 2.83L18 38l24-24-2.83-2.83z"/> </symbol><symbol viewBox="0 0 48 48" id="XPO.iconequalizer"> <path d="M0 0h48v48H0z" fill="none"/> <path d="M20 40h8V8h-8v32zM8 40h8V24H8v16zm24-22v22h8V18h-8z"/> </symbol><symbol viewBox="0 0 48 48" id="XPO.iconexittoapp"> <path d="M0 0h48v48H0z" fill="none"/> <path d="M20.17 31.17L23 34l10-10-10-10-2.83 2.83L25.34 22H6v4h19.34l-5.17 5.17zM38 6H10c-2.21 0-4 1.79-4 4v8h4v-8h28v28H10v-8H6v8c0 2.21 1.79 4 4 4h28c2.21 0 4-1.79 4-4V10c0-2.21-1.79-4-4-4z"/> </symbol><symbol viewBox="0 0 48 48" id="XPO.iconfeaturedplaylist"> <path fill="none" d="M0 0h48v48H0V0z"/> <path d="M42 6H6c-2.2 0-4 1.8-4 4v28c0 2.2 1.8 4 4 4h36c2.2 0 4-1.8 4-4V10c0-2.2-1.8-4-4-4zM24 22H6v-4h18v4zm0-8H6v-4h18v4z"/> </symbol><symbol viewBox="0 0 48 48" id="XPO.iconformatsize"> <path d="M0 0h48v48H0z" fill="none"/> <path d="M18 8v6h10v24h6V14h10V8H18zM6 24h6v14h6V24h6v-6H6v6z"/> </symbol><symbol viewBox="0 0 48 48" id="XPO.iconhelp"> <path d="M0 0h48v48H0z" fill="none"/> <path d="M24 4C12.95 4 4 12.95 4 24s8.95 20 20 20 20-8.95 20-20S35.05 4 24 4zm2 34h-4v-4h4v4zm4.13-15.49l-1.79 1.84C26.9 25.79 26 27 26 30h-4v-1c0-2.21.9-4.21 2.34-5.66l2.49-2.52C27.55 20.1 28 19.1 28 18c0-2.21-1.79-4-4-4s-4 1.79-4 4h-4c0-4.42 3.58-8 8-8s8 3.58 8 8c0 1.76-.71 3.35-1.87 4.51z"/> </symbol><symbol viewBox="0 0 48 48" id="XPO.iconhome"> <path d="M20 40V28h8v12h10V24h6L24 6 4 24h6v16z"/> <path d="M0 0h48v48H0z" fill="none"/> </symbol><symbol viewBox="0 0 48 48" id="XPO.iconmenu"> <path d="M0 0h48v48H0z" fill="none"/> <path d="M6 36h36v-4H6v4zm0-10h36v-4H6v4zm0-14v4h36v-4H6z"/> </symbol><symbol viewBox="0 0 48 48" id="XPO.iconmorevert"> <path d="M0 0h48v48H0z" fill="none"/> <path d="M24 16c2.21 0 4-1.79 4-4s-1.79-4-4-4-4 1.79-4 4 1.79 4 4 4zm0 4c-2.21 0-4 1.79-4 4s1.79 4 4 4 4-1.79 4-4-1.79-4-4-4zm0 12c-2.21 0-4 1.79-4 4s1.79 4 4 4 4-1.79 4-4-1.79-4-4-4z"/> </symbol><symbol viewBox="0 0 48 48" id="XPO.iconmudeer"> <path d="m24 1.082a22.92 22.92 0 0 0-22.92 22.92 22.92 22.92 0 0 0 22.92 22.92 22.92 22.92 0 0 0 22.92-22.92 22.92 22.92 0 0 0-22.92-22.92zm0 11.09h0.001953a11.83 11.83 0 0 1 11.82 11.83 11.83 11.83 0 0 1-0.668 3.916h-12.41v-8.154h-3.332l0.01367 1.234 1.971-0.02539 0.06445 6.973-2.047-0.02344 0.01953 1.186h3.311v-0.001954h11.92l0.5137-1.182h2.268v-8.16h3.996 1.246v9.342h-3.996-1.244-2.783a11.83 11.83 0 0 1-10.67 6.723 11.83 11.83 0 0 1-11.83-11.83 11.83 11.83 0 0 1 11.82-11.83zm-13.87 7.588v9.342h-5.928l5.928-9.342zm4.875 0v6.342h1.244v-6.342h-1.244zm23.68 1.109v7.053h2.707l0.03906-7.053h-2.746zm-23.68 5.568v1.168h1.244v-1.168h-1.244zm0 1.482v1.168h1.244v-1.168h-1.244z"/> </symbol><symbol viewBox="0 0 48 48" id="XPO.iconnotifications"> <path d="m 24,44 c 2.099143,0.137012 4.258555,-2.076528 3.899104,-4 -2.633035,0 -5.266069,0 -7.899104,0 -0.04641,2.150781 1.848746,4.046339 4,4 z M 36,32 c -0.03155,-3.806799 0.06802,-7.617289 -0.05949,-11.421418 C 35.652702,16.028695 32.949239,11.459378 28.546032,9.8396384 27.390898,9.668578 26.710232,9.2588055 27,8.0483521 27.154411,5.7176785 24.190093,4.1153974 22.321289,5.5115234 20.970043,6.3241927 20.942472,7.9686983 21,9.36 16.626426,10.285087 13.278945,14.094247 12.39797,18.401646 11.74548,21.441175 12.085192,24.566514 12,27.650175 12,29.100117 12,30.550058 12,32 c -1.333333,1.333333 -2.6666667,2.666667 -4,4 0,0.666667 0,1.333333 0,2 10.666667,0 21.333333,0 32,0 -0.04791,-0.680454 0.09566,-1.440219 -0.07134,-2.071344 C 38.619104,34.619104 37.309552,33.309552 36,32 Z"/> </symbol><symbol viewBox="0 0 48 48" id="XPO.iconnotificationsoff">  <clipPath id="notificationsoff-b"> <use xlink:href="#notificationsoff-a" overflow="visible"/> </clipPath> <path clip-path="url(#notificationsoff-b)" fill="#010101" d="M40 37.39L15.68 12.3l-5.13-5.29L8 9.55l5.6 5.6.01.01C12.56 17.14 12 19.48 12 22v10l-4 4v2h27.46l4 4L42 39.45l-2-2.06zM24 44c2.21 0 4-1.79 4-4h-8c0 2.21 1.79 4 4 4zm12-14.64V22c0-6.15-3.27-11.28-9-12.64V8c0-1.66-1.34-3-3-3s-3 1.34-3 3v1.36c-.29.07-.57.15-.85.24-.21.07-.41.14-.61.22 0 0-.01 0-.01.01-.01 0-.02.01-.03.01-.46.18-.91.39-1.35.62-.01 0-.02.01-.03.01L36 29.36z"/> </symbol><symbol viewBox="0 0 48 48" id="XPO.iconpeople"> <path d="M0 0h48v48H0z" fill="none"/> <path d="M32 22c3.31 0 5.98-2.69 5.98-6s-2.67-6-5.98-6c-3.31 0-6 2.69-6 6s2.69 6 6 6zm-16 0c3.31 0 5.98-2.69 5.98-6s-2.67-6-5.98-6c-3.31 0-6 2.69-6 6s2.69 6 6 6zm0 4c-4.67 0-14 2.34-14 7v5h28v-5c0-4.66-9.33-7-14-7zm16 0c-.58 0-1.23.04-1.93.11C32.39 27.78 34 30.03 34 33v5h12v-5c0-4.66-9.33-7-14-7z"/> </symbol><symbol viewBox="0 0 48 48" id="XPO.iconperson"> <path d="M24 24c4.42 0 8-3.59 8-8 0-4.42-3.58-8-8-8s-8 3.58-8 8c0 4.41 3.58 8 8 8zm0 4c-5.33 0-16 2.67-16 8v4h32v-4c0-5.33-10.67-8-16-8z"/> <path d="M0 0h48v48H0z" fill="none"/> </symbol><symbol viewBox="0 0 48 48" id="XPO.iconpersonadd"> <path d="M0 0h48v48H0z" fill="none"/> <path d="M30 24c4.42 0 8-3.59 8-8 0-4.42-3.58-8-8-8s-8 3.58-8 8c0 4.41 3.58 8 8 8zm-18-4v-6H8v6H2v4h6v6h4v-6h6v-4h-6zm18 8c-5.33 0-16 2.67-16 8v4h32v-4c0-5.33-10.67-8-16-8z"/> </symbol><symbol viewBox="0 0 48 48" id="XPO.iconplayarrow"> <path d="M-838-2232H562v3600H-838z" fill="none"/> <path d="M16 10v28l22-14z"/> <path d="M0 0h48v48H0z" fill="none"/> </symbol><symbol viewBox="0 0 48 48" id="XPO.iconsearch"> <path d="M31 28h-1.59l-.55-.55C30.82 25.18 32 22.23 32 19c0-7.18-5.82-13-13-13S6 11.82 6 19s5.82 13 13 13c3.23 0 6.18-1.18 8.45-3.13l.55.55V31l10 9.98L40.98 38 31 28zm-12 0c-4.97 0-9-4.03-9-9s4.03-9 9-9 9 4.03 9 9-4.03 9-9 9z"/> <path d="M0 0h48v48H0z" fill="none"/> </symbol><symbol viewBox="0 0 48 48" id="XPO.iconsettings"> <path d="M0 0h48v48H0z" fill="none"/> <path d="M38.86 25.95c.08-.64.14-1.29.14-1.95s-.06-1.31-.14-1.95l4.23-3.31c.38-.3.49-.84.24-1.28l-4-6.93c-.25-.43-.77-.61-1.22-.43l-4.98 2.01c-1.03-.79-2.16-1.46-3.38-1.97L29 4.84c-.09-.47-.5-.84-1-.84h-8c-.5 0-.91.37-.99.84l-.75 5.3c-1.22.51-2.35 1.17-3.38 1.97L9.9 10.1c-.45-.17-.97 0-1.22.43l-4 6.93c-.25.43-.14.97.24 1.28l4.22 3.31C9.06 22.69 9 23.34 9 24s.06 1.31.14 1.95l-4.22 3.31c-.38.3-.49.84-.24 1.28l4 6.93c.25.43.77.61 1.22.43l4.98-2.01c1.03.79 2.16 1.46 3.38 1.97l.75 5.3c.08.47.49.84.99.84h8c.5 0 .91-.37.99-.84l.75-5.3c1.22-.51 2.35-1.17 3.38-1.97l4.98 2.01c.45.17.97 0 1.22-.43l4-6.93c.25-.43.14-.97-.24-1.28l-4.22-3.31zM24 31c-3.87 0-7-3.13-7-7s3.13-7 7-7 7 3.13 7 7-3.13 7-7 7z"/> </symbol><symbol viewBox="0 0 48 48" id="XPO.icontab"> <path d="M0 0h48v48H0z" fill="none"/> <path d="M42 6H6c-2.21 0-4 1.79-4 4v28c0 2.21 1.79 4 4 4h36c2.21 0 4-1.79 4-4V10c0-2.21-1.79-4-4-4zm0 32H6V10h20v8h16v20z"/> </symbol><symbol viewBox="0 0 48 48" id="XPO.icontheme"> <path d="M0 0h48v48H0z" fill="none"/> <path d="M40 17.37V8h-9.37L24 1.37 17.37 8H8v9.37L1.37 24 8 30.63V40h9.37L24 46.63 30.63 40H40v-9.37L46.63 24 40 17.37zM24 36c-1.79 0-3.48-.4-5-1.1 4.13-1.9 7-6.06 7-10.9s-2.87-9-7-10.9c1.52-.7 3.21-1.1 5-1.1 6.63 0 12 5.37 12 12s-5.37 12-12 12z"/> </symbol><symbol viewBox="0 0 48 48" id="XPO.icontimer"> <path d="M0 0h48v48H0z" fill="none"/> <path d="M30 2H18v4h12V2zm-8 26h4V16h-4v12zm16.05-13.23l2.85-2.85c-.86-1.03-1.8-1.97-2.83-2.83l-2.85 2.85C32.15 9.48 28.24 8 23.99 8 14.04 8 6 16.06 6 26s8.04 18 17.99 18S42 35.94 42 26c0-4.25-1.48-8.15-3.95-11.23zM24 40c-7.73 0-14-6.27-14-14s6.27-14 14-14 14 6.27 14 14-6.27 14-14 14z"/> </symbol><symbol viewBox="0 0 48 48" id="XPO.icontranslate"> <path d="M0 0h48v48H0z" fill="none"/> <path d="M25.74 30.15l-5.08-5.02.06-.06c3.48-3.88 5.96-8.34 7.42-13.06H34V8H20V4h-4v4H2v3.98h22.34C22.99 15.84 20.88 19.5 18 22.7c-1.86-2.07-3.4-4.32-4.62-6.7h-4c1.46 3.26 3.46 6.34 5.96 9.12L5.17 35.17 8 38l10-10 6.22 6.22 1.52-4.07zM37 20h-4l-9 24h4l2.25-6h9.5L42 44h4l-9-24zm-5.25 14L35 25.33 38.25 34h-6.5z"/> </symbol><symbol viewBox="0 0 48 48" id="XPO.iconundo"> <path d="M0 0h48v48H0z" fill="none"/> <path d="M25 16c-5.29 0-10.11 1.97-13.8 5.2L4 14v18h18l-7.23-7.23C17.54 22.44 21.09 21 25 21c7.09 0 13.09 4.61 15.19 11l4.73-1.56C42.17 22.06 34.3 16 25 16z"/> </symbol><symbol viewBox="0 0 48 48" id="XPO.iconvisibility"> <path d="M0 0h48v48H0z" fill="none"/> <path d="M24 9C14 9 5.46 15.22 2 24c3.46 8.78 12 15 22 15 10.01 0 18.54-6.22 22-15-3.46-8.78-11.99-15-22-15zm0 25c-5.52 0-10-4.48-10-10s4.48-10 10-10 10 4.48 10 10-4.48 10-10 10zm0-16c-3.31 0-6 2.69-6 6s2.69 6 6 6 6-2.69 6-6-2.69-6-6-6z"/> </symbol><symbol viewBox="0 0 48 48" id="XPO.iconvisibilityoff"> <path d="M0 0h48v48H0zm0 0h48v48H0zm0 0h48v48H0zm0 0h48v48H0z" fill="none"/> <path d="M24 14c5.52 0 10 4.48 10 10 0 1.29-.26 2.52-.71 3.65l5.85 5.85c3.02-2.52 5.4-5.78 6.87-9.5-3.47-8.78-12-15-22.01-15-2.8 0-5.48.5-7.97 1.4l4.32 4.31c1.13-.44 2.36-.71 3.65-.71zM4 8.55l4.56 4.56.91.91C6.17 16.6 3.56 20.03 2 24c3.46 8.78 12 15 22 15 3.1 0 6.06-.6 8.77-1.69l.85.85L39.45 44 42 41.46 6.55 6 4 8.55zM15.06 19.6l3.09 3.09c-.09.43-.15.86-.15 1.31 0 3.31 2.69 6 6 6 .45 0 .88-.06 1.3-.15l3.09 3.09C27.06 33.6 25.58 34 24 34c-5.52 0-10-4.48-10-10 0-1.58.4-3.06 1.06-4.4zm8.61-1.57l6.3 6.3L30 24c0-3.31-2.69-6-6-6l-.33.03z"/> </symbol></svg>