<?xml version="1.0" encoding="UTF-8" standalone="no"?>
<!-- Created with Inkscape (http://www.inkscape.org/) -->

<svg
   width="512"
   height="512"
   viewBox="0 0 135.46666 135.46667"
   version="1.1"
   id="svg5"
   xml:space="preserve"
   sodipodi:docname="icon.svg"
   inkscape:version="1.2.2 (b0a8486541, 2022-12-01)"
   inkscape:export-filename="client/icons/icon.png"
   inkscape:export-xdpi="96"
   inkscape:export-ydpi="96"
   xmlns:inkscape="http://www.inkscape.org/namespaces/inkscape"
   xmlns:sodipodi="http://sodipodi.sourceforge.net/DTD/sodipodi-0.dtd"
   xmlns="http://www.w3.org/2000/svg"
   xmlns:svg="http://www.w3.org/2000/svg"><sodipodi:namedview
     id="namedview7"
     pagecolor="#505050"
     bordercolor="#eeeeee"
     borderopacity="1"
     inkscape:showpageshadow="0"
     inkscape:pageopacity="0"
     inkscape:pagecheckerboard="true"
     inkscape:deskcolor="#505050"
     inkscape:document-units="mm"
     showgrid="false"
     inkscape:zoom="1.7346554"
     inkscape:cx="228.28742"
     inkscape:cy="255.38214"
     inkscape:window-width="1920"
     inkscape:window-height="1032"
     inkscape:window-x="0"
     inkscape:window-y="0"
     inkscape:window-maximized="1"
     inkscape:current-layer="layer1" /><defs
     id="defs2" /><g
     inkscape:label="Layer 1"
     inkscape:groupmode="layer"
     id="layer1"><path
       style="fill:#989898;fill-opacity:1;stroke-width:1"
       d="m 28.284704,102.721 c -0.684363,-0.68435 -0.336227,-2.13607 1.193671,-4.977598 4.207694,-7.815084 4.471345,-15.297383 0.71187,-20.202378 -1.447047,-1.887966 -4.6025,-6.619798 -7.012118,-10.51518 C 16.069567,55.534163 14.858315,54.353594 11.714578,55.852709 6.9632786,58.118409 3.0110821,50.797911 3.7050667,41.017011 4.2564212,33.246333 13.707525,29.709712 21.868241,34.220319 l 3.197493,1.767323 4.977428,-1.709015 c 8.97048,-3.080035 14.717287,-2.084461 21.438508,3.714013 6.37919,5.50339 6.466646,5.538397 13.985719,5.597707 13.101445,0.103339 26.324854,7.367158 31.279526,17.182296 l 1.584936,3.139746 11.802149,-2.394456 c 17.61073,-3.572915 21.06909,4.308063 21.86674,15.545376 0.48945,6.89549 0.25067,7.488208 -3.01672,7.488208 -4.00072,0 -4.06987,4.844581 -0.17761,12.442569 2.43407,4.751484 2.27966,5.766284 -0.90892,5.973254 -4.03482,0.2619 -7.75657,-5.116725 -9.43245,-13.631721 l -0.88951,-4.519497 -38.221987,-0.135779 c -30.326495,-0.107734 -38.259885,0.0016 -38.40548,0.529208 -0.100918,0.365747 -0.430527,2.276114 -0.732452,4.245256 -1.393124,9.085895 -8.362191,16.834923 -11.930907,13.266203 z"
       id="path481"
       sodipodi:nodetypes="ssssssscsssscsssssscsssss" /><path
       style="fill:#8a8a8a;fill-opacity:1;stroke-width:1"
       d="m 28.456321,102.27424 c -0.546874,-0.65895 -0.323761,-1.47342 1.268497,-4.630578 4.05879,-8.047889 4.574175,-15.39482 1.35057,-19.252723 -1.181721,-1.414247 -4.446477,-6.262589 -7.255014,-10.774091 -2.808535,-4.511502 -6.110716,-9.27271 -7.338179,-10.580463 l -2.231751,-2.377734 -2.53559,0.939752 C 3.9274811,58.484611 1.1967224,42.358624 8.8803922,38.860006 17.936222,34.736599 24.107973,38.608987 35.313384,55.445053 c 4.279064,6.429265 7.569804,10.30715 10.254827,12.084524 l 2.130492,1.410292 37.877654,0.264604 c 23.278043,0.162614 30.948953,-9.12537 44.118963,4.681409 l 2.00763,2.104705 -0.15536,4.148163 -0.15537,4.148164 -2.85257,0.162529 -2.85255,0.162537 0.31855,3.806527 c 0.25116,3.000892 0.78598,4.750111 2.52703,8.264807 2.50839,5.063706 2.38589,6.022616 -0.80379,6.292386 -3.50371,0.29633 -7.71007,-5.774652 -8.86383,-12.793055 -0.29383,-1.787327 -0.63667,-3.787068 -0.76188,-4.443864 l -0.22767,-1.19417 -38.460365,0.135747 -38.46036,0.135762 -0.889515,4.519498 C 38.112915,99.255271 31.794945,106.29693 28.456401,102.27423 Z M 47.213403,63.449104 c -4.036065,-1.848049 -8.284582,-6.739109 -13.920329,-16.025643 -1.176013,-1.937824 -3.093101,-4.557405 -4.260202,-5.821293 -4.382063,-4.745475 -4.235785,-5.283897 2.019311,-7.432887 8.061703,-2.769663 13.540111,-1.54824 21.035367,4.689878 6.0035,4.996564 6.392779,5.149939 12.726193,5.014181 12.894936,-0.276415 26.834503,7.280813 31.871451,17.278857 0.628234,1.247005 1.016545,2.470668 0.862917,2.719247 -0.643206,1.040721 -48.007371,0.643306 -50.334708,-0.42234 z"
       id="path479"
       sodipodi:nodetypes="csssscsssscsscccccssssscccsccsssssssss" /><path
       style="fill:#787878;fill-opacity:1;stroke-width:1"
       d="m 28.456321,102.27424 c -0.546874,-0.65895 -0.323761,-1.47342 1.268497,-4.630578 4.05879,-8.047889 4.574175,-15.39482 1.35057,-19.252723 -1.181721,-1.414247 -4.446477,-6.262589 -7.255014,-10.774091 -2.808535,-4.511502 -6.110716,-9.27271 -7.338179,-10.580463 l -2.231751,-2.377734 -2.53559,0.939752 C 5.0531758,58.067398 1.7278371,47.064006 7.9830317,43.249975 13.833825,39.682518 19.339662,43.591308 28.887931,58.091096 c 7.187741,10.91514 8.908838,13.116939 11.84279,15.150422 l 2.192564,1.519644 44.234432,0.264602 44.234423,0.264605 v 4.498273 4.498272 l -2.85257,0.162529 -2.85255,0.162537 0.31855,3.806527 c 0.25116,3.000892 0.78598,4.750111 2.52703,8.264807 2.50839,5.063706 2.38589,6.022616 -0.80379,6.292386 -3.50371,0.29633 -7.71007,-5.774652 -8.86383,-12.793055 -0.29383,-1.787327 -0.63667,-3.787068 -0.76188,-4.443864 l -0.22767,-1.19417 -38.460366,0.135747 -38.460361,0.135762 -0.889513,4.519498 C 38.112834,99.255271 31.794863,106.29693 28.456321,102.27423 Z M 86.918662,61.290542 C 81.433789,55.620158 72.672976,52.198375 63.670409,52.210294 57.271083,52.218785 55.72515,51.628159 50.15865,47.048269 43.060471,41.208171 39.283654,40.093198 33.226171,42.049551 l -2.765395,0.893123 -2.302522,-2.613051 c -2.884297,-3.273281 -2.887747,-3.754701 -0.03593,-5.016186 9.596702,-4.245077 15.687092,-3.343989 23.965255,3.545722 6.003499,4.996564 6.392781,5.149939 12.726192,5.014181 12.894936,-0.276415 26.834504,7.280813 31.871451,17.278857 1.495506,2.968488 1.192683,3.2894 -3.104015,3.2894 H 89.96665 L 86.91869,61.290542 Z M 45.889859,61.887034 C 40.952883,58.756099 32.421733,46.543473 34.590285,45.711317 c 3.988829,-1.530654 8.202396,-0.887397 14.221872,5.338525 4.148049,4.290313 7.832852,6.796454 14.50126,6.772015 6.226903,-0.02282 10.848888,-0.448881 17.103041,2.698623 5.727554,2.882486 5.824209,2.862701 -13.982109,2.862701 H 48.249032 Z"
       id="path477"
       sodipodi:nodetypes="ssssscsssscccccccssssscccssssssscscssssccssssssscs" /><path
       style="fill:#6c6c6c;fill-opacity:1;stroke-width:1"
       d="m 28.456321,102.27424 c -0.546874,-0.65895 -0.323761,-1.47342 1.268497,-4.630578 4.05879,-8.047889 4.574175,-15.39482 1.35057,-19.252723 -1.181721,-1.414247 -4.446477,-6.262589 -7.255014,-10.774091 -2.808535,-4.511502 -6.110716,-9.27271 -7.338179,-10.580463 l -2.231751,-2.377734 -2.53559,0.939752 C 6.5279345,57.520811 2.2960304,49.894939 5.9160085,45.148901 11.422037,37.930123 18.373281,42.246474 30.167717,60.207931 c 5.89529,8.977787 9.447952,13.095792 12.453772,14.435572 1.099218,0.489951 12.042143,0.671623 45.110958,0.748925 l 43.659693,0.102054 v 4.396214 4.396214 l -2.85257,0.162529 -2.85255,0.162538 0.31855,3.806526 c 0.25116,3.000892 0.78598,4.750111 2.52703,8.264808 2.50839,5.063699 2.38589,6.022609 -0.80379,6.292379 -3.50371,0.29633 -7.71007,-5.774645 -8.86383,-12.793049 -0.29383,-1.787326 -0.63667,-3.787068 -0.76188,-4.443864 l -0.22767,-1.194169 -38.460366,0.135746 -38.460361,0.135763 -0.889513,4.519498 C 38.112834,99.255267 31.794863,106.29693 28.456321,102.27423 Z M 87.359165,61.345194 C 82.246308,55.536686 72.625987,51.740595 63.01852,51.740595 c -5.960358,0 -7.2371,-0.54085 -13.789742,-5.841614 C 42.685771,40.606023 39.034995,39.644303 33.22398,41.682845 l -2.910646,1.021072 -2.228803,-2.493673 c -2.806976,-3.14055 -2.803118,-3.640149 0.03779,-4.896807 9.596703,-4.245077 15.687093,-3.343989 23.965256,3.545722 6.003499,4.996564 6.392779,5.149939 12.726193,5.014181 12.894936,-0.276415 26.834502,7.280813 31.87145,17.278857 1.492521,2.962566 1.189978,3.2894 -3.044959,3.2894 h -3.555498 l -2.725572,-3.096403 z"
       id="path475" /><path
       style="fill:#454545;fill-opacity:1;stroke-width:1"
       d="m 29.126599,101.94 c -0.45334,-0.45334 -0.202141,-1.4019 1.004009,-3.791266 2.304289,-4.564767 3.082581,-7.416241 3.451184,-12.644283 l 0.324586,-4.603747 -2.940389,-3.863586 C 29.348777,74.912151 25.962065,69.839522 23.439959,65.764618 16.813929,55.059086 14.89909,53.354887 11.325753,54.983014 7.0738088,56.920328 3.2212751,49.381908 6.4825506,45.506096 c 3.2281832,-3.836475 7.8984814,-3.414759 12.8382404,1.159258 3.164159,2.929878 3.870445,3.885142 11.405055,15.425425 4.773985,7.312015 8.097926,11.155211 11.031529,12.754838 1.687312,0.920056 4.20981,0.982095 45.578167,1.120945 l 43.791998,0.146976 v 3.689783 3.689779 h -2.34365 c -4.82742,0 -4.92484,6.331989 -0.22675,14.740482 1.87047,3.347698 1.69213,4.311018 -0.79801,4.311018 -3.8516,0 -8.80339,-8.933205 -8.80339,-15.881595 0,-3.345068 2.1736,-3.170634 -39.399563,-3.161802 C 37.255532,83.510153 40.37503,83.219855 39.841058,87.197559 38.484397,97.303721 32.594482,105.40789 29.126599,101.94 Z M 87.112649,60.153941 C 81.835689,54.613965 72.41,51.010643 63.433107,51.101545 57.376242,51.162879 56.500085,50.824699 50.687857,46.182107 43.258332,40.247685 39.424969,39.07061 33.440389,40.886095 30.021672,41.923198 30.331142,42.022202 28.45134,39.290004 l -1.648235,-2.395631 2.332471,-1.031761 c 8.486513,-3.753988 14.933118,-2.678207 22.346094,3.729018 5.706407,4.932198 6.581634,5.269256 13.682595,5.269256 11.751618,0 24.07659,6.168802 29.541329,14.785802 3.387088,5.340878 -2.607346,5.741345 -7.592945,0.507253 z"
       id="path473" /><path
       style="fill:#494949;fill-opacity:1;stroke-width:1"
       d="m 29.287182,101.53839 c -0.162139,-0.26235 0.301894,-1.51261 1.031195,-2.778346 1.932527,-3.353981 3.364114,-8.365701 3.765931,-13.183793 0.3254,-3.901829 0.41977,-4.163405 1.235676,-3.425023 0.48585,0.439694 1.641873,1.063852 2.568931,1.38703 4.453301,1.552428 -1.545225,18.477132 -6.548743,18.477132 -0.967001,0 -1.890851,-0.21465 -2.05299,-0.477 z m 95.187808,-1.24292 c -2.64482,-3.127354 -4.60464,-8.098955 -4.87921,-12.377404 l -0.25002,-3.895757 h 2.39443 c 2.61963,0 3.03227,0.454363 3.04312,3.350837 0.009,2.575864 1.38129,7.160152 3.15446,10.542864 2.42037,4.61739 -0.1035,6.35165 -3.46278,2.37946 z M 86.409427,80.853096 42.485127,80.582454 40.050853,79.15139 C 36.326956,76.962186 32.392323,72.309503 26.916191,63.619722 17.616437,48.862442 12.956885,45.471052 7.6819252,49.620337 5.3169833,51.480601 4.8154636,48.116248 7.0600647,45.448694 11.21573,40.509962 18.660149,44.327428 25.521906,54.915846 c 10.131786,15.634425 12.727765,18.860062 16.42011,20.402821 1.547941,0.646771 8.566122,0.765516 45.244225,0.765516 h 43.412099 v 2.646042 c 0,1.455324 -0.0594,2.589221 -0.13229,2.519778 -0.0729,-0.06944 -19.89824,-0.248056 -44.056607,-0.396907 z"
       id="path471" /><path
       style="fill:#3a3a3a;fill-opacity:1;stroke-width:1"
       d="m 29.519521,101.30611 c 0,-0.099 0.70334,-1.587589 1.56298,-3.307878 1.874868,-3.751945 3.181372,-8.984889 3.192074,-12.785205 0.0078,-2.766415 0.01235,-2.773856 1.052776,-1.733389 0.574724,0.574725 1.646372,1.195904 2.381436,1.380392 4.069953,1.021493 -1.890945,16.62616 -6.351098,16.62616 -1.010993,0 -1.838168,-0.081 -1.838168,-0.18008 z m 95.014669,-1.478213 c -2.64478,-3.143134 -5.04924,-9.462692 -5.04924,-13.270732 0,-1.393497 0.13166,-1.47644 2.34336,-1.47644 h 2.34335 l 0.37855,3.04295 c 0.46123,3.707692 1.89339,8.002912 3.69146,11.071087 l 1.34286,2.291428 h -1.82749 c -1.39819,0 -2.15529,-0.38956 -3.22285,-1.658293 z M 86.67403,79.794712 C 45.335708,79.538426 42.908033,79.471217 41.014997,78.530596 38.66782,77.364321 33.17886,71.55011 31.211375,68.146056 30.454335,66.836264 29.680554,65.645546 29.491854,65.500014 29.303154,65.354483 28.842096,64.64005 28.467285,63.912389 21.366816,50.127546 10.683728,42.719872 6.6393597,48.77687 6.4121754,49.117113 6.2471884,48.893863 6.242454,48.239807 c -0.01284,-1.773663 1.9536324,-3.831072 4.034939,-4.221528 4.741441,-0.889498 8.957825,2.418276 15.240158,11.955983 2.013056,3.056178 4.946718,7.506542 6.519251,9.889688 3.193205,4.839256 7.162105,8.837781 9.913322,9.987312 1.537356,0.642348 8.646896,0.76213 45.236117,0.76213 h 43.412099 v 1.852228 c 0,1.018727 -0.0594,1.795424 -0.13229,1.725999 -0.0729,-0.06943 -19.77917,-0.248036 -43.792003,-0.396907 z"
       id="path469" /></g></svg>
